<svg xmlns="http://www.w3.org/2000/svg" aria-hidden="true" role="img" focusable="false"
  style="visibility:hidden;position:absolute;width:0;height:0;overflow:hidden;">
  <symbol id="icon__loading" fill="none" viewBox="0 0 24 24">
    <path
      d="M12 3v3m0 12v3m9-9h-3M6 12H3m15.363-6.363-2.12 2.121m-8.485 8.484-2.121 2.121m12.726 0-2.12-2.12M7.757 7.757l-2.12-2.12"
      stroke="currentColor" stroke-width="1.5" stroke-linecap="round" />
  </symbol>
  <symbol id="icon__home" viewBox="0 0 256 256">
    <path fill="currentColor"
      d="m219.31 108.68-80-80a16 16 0 0 0-22.62 0l-80 80A15.87 15.87 0 0 0 32 120v96a8 8 0 0 0 8 8h64a8 8 0 0 0 8-8v-56h32v56a8 8 0 0 0 8 8h64a8 8 0 0 0 8-8v-96a15.87 15.87 0 0 0-4.69-11.32ZM208 208h-48v-56a8 8 0 0 0-8-8h-48a8 8 0 0 0-8 8v56H48v-88l80-80 80 80Z" />
  </symbol>
  <symbol id="icon__notebook" viewBox="0 0 256 256">
    <path fill="currentColor"
      d="M184 112a8 8 0 0 1-8 8h-64a8 8 0 0 1 0-16h64a8 8 0 0 1 8 8Zm-8 24h-64a8 8 0 0 0 0 16h64a8 8 0 0 0 0-16Zm48-88v160a16 16 0 0 1-16 16H48a16 16 0 0 1-16-16V48a16 16 0 0 1 16-16h160a16 16 0 0 1 16 16ZM48 208h24V48H48Zm160 0V48H88v160h120Z" />
  </symbol>

  <symbol id="icon__gear" viewBox="0 0 256 256">
    <path fill="currentColor"
      d="M128 80a48 48 0 1 0 48 48 48.05 48.05 0 0 0-48-48Zm0 80a32 32 0 1 1 32-32 32 32 0 0 1-32 32Zm88-29.84q.06-2.16 0-4.32l14.92-18.64a8 8 0 0 0 1.48-7.06 107.21 107.21 0 0 0-10.88-26.25 8 8 0 0 0-6-3.93l-23.72-2.64q-1.48-1.56-3-3L186 40.54a8 8 0 0 0-3.94-6 107.71 107.71 0 0 0-26.25-10.87 8 8 0 0 0-7.06 1.49L130.16 40h-4.32L107.2 25.11a8 8 0 0 0-7.06-1.48 107.6 107.6 0 0 0-26.25 10.88 8 8 0 0 0-3.93 6l-2.64 23.76q-1.56 1.49-3 3L40.54 70a8 8 0 0 0-6 3.94 107.71 107.71 0 0 0-10.87 26.25 8 8 0 0 0 1.49 7.06L40 125.84v4.32L25.11 148.8a8 8 0 0 0-1.48 7.06 107.21 107.21 0 0 0 10.88 26.25 8 8 0 0 0 6 3.93l23.72 2.64q1.49 1.56 3 3L70 215.46a8 8 0 0 0 3.94 6 107.71 107.71 0 0 0 26.25 10.87 8 8 0 0 0 7.06-1.49L125.84 216q2.16.06 4.32 0l18.64 14.92a8 8 0 0 0 7.06 1.48 107.21 107.21 0 0 0 26.25-10.88 8 8 0 0 0 3.93-6l2.64-23.72q1.56-1.48 3-3l23.78-2.8a8 8 0 0 0 6-3.94 107.71 107.71 0 0 0 10.87-26.25 8 8 0 0 0-1.49-7.06Zm-16.1-6.5a73.93 73.93 0 0 1 0 8.68 8 8 0 0 0 1.74 5.48l14.19 17.73a91.57 91.57 0 0 1-6.23 15l-22.6 2.56a8 8 0 0 0-5.1 2.64 74.11 74.11 0 0 1-6.14 6.14 8 8 0 0 0-2.64 5.1l-2.51 22.58a91.32 91.32 0 0 1-15 6.23l-17.74-14.19a8 8 0 0 0-5-1.75h-.48a73.93 73.93 0 0 1-8.68 0 8 8 0 0 0-5.48 1.74l-17.78 14.2a91.57 91.57 0 0 1-15-6.23L82.89 187a8 8 0 0 0-2.64-5.1 74.11 74.11 0 0 1-6.14-6.14 8 8 0 0 0-5.1-2.64l-22.58-2.52a91.32 91.32 0 0 1-6.23-15l14.19-17.74a8 8 0 0 0 1.74-5.48 73.93 73.93 0 0 1 0-8.68 8 8 0 0 0-1.74-5.48L40.2 100.45a91.57 91.57 0 0 1 6.23-15L69 82.89a8 8 0 0 0 5.1-2.64 74.11 74.11 0 0 1 6.14-6.14A8 8 0 0 0 82.89 69l2.51-22.57a91.32 91.32 0 0 1 15-6.23l17.74 14.19a8 8 0 0 0 5.48 1.74 73.93 73.93 0 0 1 8.68 0 8 8 0 0 0 5.48-1.74l17.77-14.19a91.57 91.57 0 0 1 15 6.23L173.11 69a8 8 0 0 0 2.64 5.1 74.11 74.11 0 0 1 6.14 6.14 8 8 0 0 0 5.1 2.64l22.58 2.51a91.32 91.32 0 0 1 6.23 15l-14.19 17.74a8 8 0 0 0-1.74 5.53Z" />
  </symbol>

  <symbol id="icon__pushup" viewBox="0 0 50 50">
    <path fill="currentColor"
      d="m32.0543 16.6142-13.3642 6.6646c-1.2954.6447-2.0755 1.999-2.0197 3.4313L2.2102 32.9336c-1.0146.4365-1.4834 1.6123-1.0469 2.627.4382 1.0211 1.6207 1.4831 2.627 1.0469l15.1045-6.5c.0636-.0273.1185-.0657.1777-.0986.71.2603 1.5018.3148 2.2836.0875l12.6266-3.6707V35c0 1.1045.8955 2 2 2s2-.8955 2-2V24.4941c1.3657-1.4881 1.7598-3.7123.8047-5.6276-1.2374-2.4812-4.2519-3.4896-6.7331-2.2523z" />
    <ellipse cx="44.995" cy="17" rx="4.005" ry="4" fill="currentColor" />
  </symbol>

  <!-- <symbol id="icon__pullup" viewBox="0 0 458.534 458.534">
    <path
      d="M182.541 312.391c-7.036 7.735-6.469 19.709 1.266 26.744 7.739 7.039 19.71 6.466 26.744-1.265l14.759-16.225-31.971-21.124-10.798 11.87z" />
    <path
      d="M376.446 8.5h-52.734c-2.306-5.033-7.386-8.5-13.231-8.5-.146 0-.294.003-.442.007-5.718.171-10.553 3.625-12.79 8.493h-50.265c-5.111-3.309-11.199-5.238-17.741-5.238s-12.63 1.929-17.741 5.238h-50.217c-2.236-4.869-7.071-8.323-12.79-8.493-6.032-.183-11.314 3.332-13.678 8.493H82.088c-6.845 0-12.395 5.55-12.395 12.395v437.639h24.79V33.29h38.452l-1.542 51.63c-.236 7.893 5.864 14.536 13.748 14.973l42.148 2.334v94.761c-13.073 17.591-15.548 20.921-28.254 38.017a18.9261 18.9261 0 0 0-3.451 14.569c.9 5.124 3.869 9.652 8.21 12.52l81.791 54.042c8.732 5.767 20.472 3.359 26.233-5.359 5.764-8.724 3.364-20.468-5.359-26.233l-65.098-43.012c11.716-15.765 5.603-7.539 23.107-31.092h8.673l8.207 37.304-.741.814 31.971 21.124 3.369-3.703c4.133-4.544 5.805-10.81 4.485-16.808l-9.576-43.526V102.249l42.537-2.355c7.885-.437 13.984-7.08 13.749-14.973L325.6 33.29h38.452v425.244h24.79V20.895c-.001-6.845-5.55-12.395-12.396-12.395zm-78.835 63.102-47.103 3.422h-42.482l-47.103-3.422 1.144-38.312h34.596c-.071.881-.118 1.77-.118 2.67 0 18.059 14.639 32.698 32.698 32.698 18.058 0 32.697-14.639 32.697-32.698 0-.9-.046-1.788-.117-2.67h34.643l1.145 38.312z" />
  </symbol> -->
  <symbol id="icon__pullup" viewBox="0 0 50 50">
    <path fill="currentColor"
      d="M45 .9795V2.939h-3.08c.17.64.19 1.32.02 2H45v44.0405h4v-48h-4zM5 2.939V.9795H1v48h4V4.939h3.12c-.17-.68-.15-1.37.03-2zm28.43 2c.45-1.04.69-1.78.76-2H15.86c.07.22.32.97.77 2zM21 8.979c0 2.21 1.79 4 4 4s4-1.79 4-4c0-.74-.21-1.44-.56-2.04h-6.88c-.35.6-.56 1.3-.56 2.04z" />
    <path fill="currentColor"
      d="M38.6055 2.0562c-1.0596-.3042-2.1689.3101-2.4736 1.3721-.0219.076-2.1945 7.4338-7.7408 11.5508h-6.7273c-5.5037-4.0888-7.7106-11.4449-7.7419-11.5532-.3047-1.0605-1.415-1.6733-2.4727-1.3696-1.0615.3047-1.6758 1.4121-1.3721 2.4736.1029.3598 2.5116 8.507 8.9229 13.4497v13.7961c-.007.0678-.0205.1337-.0205.2034v15.0415c0 1.1045.8955 2 2 2s2-.8955 2-2V33.979h4v13.0415c0 1.1045.8955 2 2 2s2-.8955 2-2V33.979H31V18.0204c6.4517-4.9383 8.8744-13.1296 8.9775-13.4906.3038-1.0615-.3105-2.169-1.372-2.4736z" />
  </symbol>

  <symbol id="icon__squat" viewBox="0 0 66 66">
    <path fill="currentColor"
      d="m39.6 37.5-10.7-1.4-.8 2.2 7 .9c2.5.3 4.1 2.9 3.3 5.3l-5.8 16.9c1.4.2 2.8-.6 3.3-2l6.2-18c.6-1.7-.6-3.7-2.5-3.9zm-4.9-18.4h14.7c.7 0 1.3.2 1.8.6.1-.2.2-.5.2-.8 0-1.1-.9-2-2-2h-15c.2.7.3 1.4.3 2.2zm-1.4-5.8c3.2 0 5.8-2.6 5.8-5.8s-2.6-5.8-5.8-5.8-5.8 2.6-5.8 5.8 2.6 5.8 5.8 5.8zm16 6.8H27.7c-1.1 0-2 .9-2 2s.9 2 2 2h21.6c1.1 0 2-.9 2-2s-.8-2-2-2z" />
    <path fill="currentColor"
      d="m35 40.2-8.3-1.1L31.9 25h-4.2c-1.7 0-3-1.3-3-3s1.4-3 3-3h6c0-2.3-1.5-4.6-3.9-5.5-3.1-1.2-6.6.4-7.7 3.5L15 36.3c-1.4 3.7 1.2 7.6 4.8 8.1l10.8 1.4-5 14.5c-.5 1.6.3 3.3 1.9 3.8s3.3-.3 3.8-1.9l6.2-18c.6-1.8-.6-3.7-2.5-4z" />
  </symbol>

  <!-- <symbol id="icon__abs" viewBox="0 0 50 50">
    <path
      d="M6.1762 9.4205c.2593 0 .5188.0259.7784.0778l7.0052 1.4011c.0129-.0649.0129-.1168.0129-.1816 0-3.5806-2.9059-6.4864-6.4863-6.4864C3.906 4.2313 1 7.1372 1 10.7178c0 1.7253.6746 3.2951 1.7903 4.4627-.4541-.7914-.5969-1.7254-.415-2.6335.3632-1.8162 1.9589-3.1265 3.8009-3.1265z" />
    <path
      d="m48.4538 41.5571-9.0811-11.6757c-.9393-1.2073-2.7267-1.3489-3.8438-.28l-7.1631 6.8647-9.9053-14.0906c-.1638-.2302-.3494-.4596-.5457-.6821l3.2869-4.1833c1.1953-1.5201.3617-3.7684-1.5305-4.1472L6.6984 10.7684c-1.41-.2869-2.7732.6303-3.0532 2.0353-.2813 1.405.6296 2.772 2.0347 3.0526l8.834 1.7673-1.2029 1.5309c-2.5848-.4202-5.3203.4551-7.1697 2.5727-2.8483 3.2614-2.5134 8.2142.748 11.0625l13.2412 11.564c1.9538 1.7064 5.1334 2.2758 8.1594-.6277l8.7529-8.3875 7.3138 9.4047c.8848 1.1366 2.519 1.3304 3.641.4548 1.1315-.8797 1.3356-2.5096.4562-3.6409z" />
  </symbol> -->

  <symbol id="icon__abs" viewBox="0 0 66 66">
    <path d="M33.8 21.8c.4.7.6 1.6.4 2.4l.5.1c.2-1 .1-2-.4-2.8S33 20.1 32 19.9l-.1.5c.8.2 1.5.7 1.9 1.4z"
      fill="currentColor" />
    <path
      d="M32.9 22.4c.3.5.4 1 .2 1.6l.5.1c.2-.7.1-1.4-.3-2s-1-1-1.6-1.2l-.1.5c.5.2 1 .5 1.3 1zM46 24.1c.7-.5 1.6-.6 2.4-.4l.1-.5c-1-.2-1.9-.1-2.8.4-.8.5-1.4 1.4-1.6 2.3l.5.1c.1-.7.6-1.4 1.4-1.9z"
      fill="currentColor" />
    <path
      d="M46.3 24.7c-.6.4-1 1-1.2 1.6l.5.1c.1-.6.5-1 .9-1.3.5-.3 1-.4 1.6-.3l.1-.5c-.6-.1-1.3 0-1.9.4zm-30.9-2.5 10.2 4.4c-.7 3.9-1.5 8.3-1.9 10.7 1.5-1 3.5-1.4 5.4-.9.2 0 .4.1.6.1.4-2.3 1-5.9 1.9-11.2.2-1.3-.5-2.6-1.7-3.1l-12.3-5.3c-1.5-.6-3.1 0-3.8 1.5-.5 1.5.1 3.2 1.6 3.8zm44 4.5c-1.3 0-2.6.5-3.5 1.3l2 .8c1.5.6 2.2 2.3 1.6 3.7-.6 1.5-2.3 2.2-3.7 1.6l-1.8-.7c.5 2.6 2.8 4.5 5.5 4.5 3.1 0 5.6-2.5 5.6-5.6-.1-3.1-2.6-5.6-5.7-5.6z"
      fill="currentColor" />
    <path
      d="m49.7 34.2-1 4.9c-.3 1.5-1.8 2.6-3.4 2.3S42.7 39.6 43 38l.5-2.4c-4.5 1.8-10 3-14.7 1.7-2-.6-4.1 0-5.5 1.4l-.2.2c-4-3.7-11.7-11.8-17.1-18.6-1-1.2-2.8-1.5-4-.5s-1.5 2.8-.5 4C6.9 30.6 14 38.3 21 44.9c1.7 1.6 2.6 2.4 3 2.6.2.1.7.6 1.9.9 8.2 2.2 18.5 0 25.1-3.6 2.8-1.5 3.8-5 2.3-7.8-.7-1.4-2.1-2.4-3.6-2.8z"
      fill="currentColor" />
    <path
      d="M45.6 40.5c1 .2 2-.4 2.3-1.5l1.7-8.4 6.6 2.7c1 .4 2.1-.1 2.5-1.1s-.1-2.1-1.1-2.5l-8.8-3.5c-.5-.2-1.1-.2-1.6.1s-.9.8-1 1.3l-2.1 10.7c-.2 1 .4 2 1.5 2.2z"
      fill="currentColor" />
  </symbol>

  <symbol id="icon__chevron-down" fill="none" viewBox="0 0 24 24">
    <path d="M19.5 9 12 16.5 4.5 9" stroke="currentColor" stroke-width="1.5" stroke-linecap="round"
      stroke-linejoin="round" />
  </symbol>

  <symbol id="icon__chevron-up" fill="none" viewBox="0 0 24 24">
    <path d="M4.5 15 12 7.5l7.5 7.5" stroke="currentColor" stroke-width="1.5" stroke-linecap="round"
      stroke-linejoin="round" />
  </symbol>
</svg>