<svg xmlns="http://www.w3.org/2000/svg" viewBox="0 0 600 600">
  <path
    d="M26.7 47.5c-4.8 1.6-8.5 5-10.3 9.2-1.2 2.7-1.4 36.9-1.4 208.9 0 228.6-.6 209.6 6.7 215.1 3.6 2.7 4.8 2.9 34.8 5.3 40.3 3.2 87.7 10.8 125 20.2 26.4 6.6 41.2 11.6 57 19.2 21.3 10.2 30.6 16.6 42.4 28.5l10.4 10.5 6.3.4c8.3.6 11.5-.9 15.8-6.8 9.2-12.7 34.5-28.9 62.2-39.6 40-15.4 111.9-28.9 178.9-33.5 9.4-.6 18.4-1.7 20.1-2.4 1.7-.7 4.4-3 6-5.1l2.9-3.7.3-206.1c.2-142.6 0-207.2-.8-209.8-1.2-4.3-6.6-9.3-11.3-10.6-2.2-.6-9.3-.5-20.3.4-102.8 8.2-194.4 32.3-242.3 63.9-4.7 3-8.7 5.5-9.1 5.5-.4 0-4.4-2.5-9.1-5.6-24.5-16.3-64.6-31.8-110.4-42.9C133.9 57.3 96.3 51.6 36 46.6c-3.2-.3-7.1.1-9.3.9zm35.9 29.1c51 5.3 109 16.7 149.8 29.5 33.9 10.7 64.4 26 74.4 37.3 8.9 10.1 17.6 10.1 26.4.1C335.4 118.3 411.8 93.4 508 80c15.2-2.1 42.2-5 46.5-5h2.5v381.8l-8.7.6c-112.7 8.4-196.2 31.8-240.4 67.4l-8.5 6.8-4.5-3.8c-13.3-11.7-41.2-27.1-65.6-36.2-34.7-12.9-83.9-23.7-136.3-30.1-10.7-1.3-45-4.4-48.7-4.5-1 0-1.3-39.4-1.5-191l-.3-191h2.6c1.5 0 9.3.7 17.5 1.6z" />
  <path
    d="M171.4 187c-1.2.4-3.1 2.1-4.3 3.6l-2.1 2.7v187.5l2.6 3.1c3.6 4.3 8.2 5.4 21.7 5 9.8-.4 12-.7 14.4-2.5 5.2-3.9 5.3-4.1 5.3-44.2V305h182v76.7l2.5 2.7c3.6 3.9 6.5 4.6 19.1 4.6 13.3 0 17.3-1.2 20.4-6.2 2-3.3 2-4.4 1.8-96.3-.3-87.6-.4-93.2-2.1-95.6-3-4.4-6.1-5.1-21.7-4.7l-14.2.3-2.9 3.3-2.9 3.2v77H209v-37c0-40.8-.2-42.5-5.9-45.4-2.3-1.2-6.1-1.6-16.3-1.5-7.3 0-14.3.4-15.4.9zm-52.9 34c-1.1.4-3.1 2-4.5 3.5l-2.5 2.7-.3 59.4c-.2 52.8-.1 59.9 1.4 62.9 2.5 5.3 6.3 6.5 20.6 6.5 13.6 0 17.9-1.4 19.8-6.6.6-1.5 1-25.6 1-61.5 0-65.5.2-63.7-6.5-66.5-3.8-1.6-25.5-1.9-29-.4zm332.5 1.2c-1.9 1.3-4 3.5-4.7 4.8-1 1.9-1.3 16.2-1.3 60.8 0 64.2-.1 63.6 6.1 66.7 4 2.1 26.9 2.1 30.9 0 6.2-3.2 6.1-1.5 5.8-67.5l-.3-60-3.3-3.2-3.2-3.3-13.3-.3c-12.5-.3-13.4-.2-16.7 2z" />
</svg>